<svg version="1.1" id="Layer_1" xmlns="http://www.w3.org/2000/svg" xmlns:xlink="http://www.w3.org/1999/xlink" x="0px" y="0px"
	 width="100%" viewBox="0 0 96 96" enable-background="new 0 0 96 96" xml:space="preserve">
<path fill="#000000" opacity="1.000000" stroke="none" 
	d="
M63.000000,97.000000 
	C43.000000,97.000000 23.499672,96.946465 4.000406,97.066200 
	C1.498635,97.081566 0.926800,96.500229 0.935161,93.999786 
	C1.035474,64.000122 1.035474,33.999882 0.935161,4.000217 
	C0.926800,1.499774 1.499774,0.926800 4.000217,0.935161 
	C33.999882,1.035473 64.000122,1.035474 93.999786,0.935161 
	C96.500229,0.926800 97.073204,1.499774 97.064842,4.000217 
	C96.964531,33.999882 96.964531,64.000122 97.064842,93.999786 
	C97.073204,96.500229 96.505112,97.108902 93.998894,97.068352 
	C83.834892,96.903862 73.666664,97.000000 63.000000,97.000000 
z"/>
<path fill="#FFAB01" opacity="1.000000" stroke="none" 
	d="
M23.102146,77.192429 
	C4.509005,63.235146 4.099064,33.099148 21.475742,17.934278 
	C37.835987,3.656464 66.466507,6.492145 77.674469,24.026566 
	C78.175423,24.305168 78.364601,24.422482 78.804825,24.759951 
	C79.403831,25.026741 79.672829,25.197670 79.937683,25.726521 
	C83.598640,32.723656 86.911346,39.473763 87.060234,47.474228 
	C87.577072,75.245796 56.514931,97.405632 29.805622,82.004646 
	C28.791534,81.419907 27.735218,80.937866 26.320511,80.229691 
	C25.376347,79.537651 24.789619,79.065102 24.091284,78.327774 
	C23.774605,77.802345 23.548466,77.561455 23.102146,77.192429 
z"/>
<path fill="#DE8A03" opacity="1.000000" stroke="none" 
	d="
M26.081406,80.338989 
	C31.009281,80.394005 35.145874,83.593765 40.149647,84.363350 
	C54.912701,86.633904 67.289497,82.171768 76.500549,70.729523 
	C85.294083,59.805927 87.520058,47.212769 82.480392,33.741333 
	C81.612221,31.420631 80.831375,29.067263 80.011353,26.344570 
	C86.033035,32.626019 88.811974,40.363544 89.120132,49.428059 
	C89.512589,60.972080 85.854996,70.553238 77.815071,78.715408 
	C65.674034,91.041046 44.041042,92.567047 29.775211,83.242516 
	C28.547098,82.439781 27.389885,81.528580 26.081406,80.338989 
z"/>
<path fill="#DE8A03" opacity="1.000000" stroke="none" 
	d="
M78.984024,24.723412 
	C78.745628,24.921650 78.485786,24.774324 78.131287,24.362991 
	C78.294891,24.280809 78.603539,24.373764 78.984024,24.723412 
z"/>
<path fill="#DE8A03" opacity="1.000000" stroke="none" 
	d="
M22.993340,77.295486 
	C23.179840,77.235016 23.456644,77.425507 23.856562,77.839508 
	C23.680998,77.890823 23.382320,77.718636 22.993340,77.295486 
z"/>
<path fill="#FFCB7D" opacity="1.000000" stroke="none" 
	d="
M69.680191,27.361610 
	C77.625389,37.599205 79.352707,48.450069 73.953522,59.922676 
	C68.996689,70.455360 60.219116,76.032188 48.737934,76.903603 
	C35.331673,77.921127 22.968666,69.403259 18.684755,56.709984 
	C14.288013,43.682384 19.069410,29.539162 30.410938,22.024286 
	C41.567513,14.631961 56.480629,15.555915 66.600639,24.291695 
	C67.605545,25.159145 68.497803,26.157087 69.680191,27.361610 
z"/>
<path fill="#FFAB02" opacity="1.000000" stroke="none" 
	d="
M41.712273,41.473885 
	C37.620480,41.132656 38.848827,39.106270 39.992115,37.200901 
	C40.211266,36.835678 40.836987,36.713558 41.276257,36.481407 
	C50.312141,31.705980 50.996468,32.111614 50.996376,42.243568 
	C50.996330,46.887833 51.044231,51.532833 50.973690,56.176033 
	C50.940639,58.351303 51.718170,61.071213 47.857861,60.985950 
	C44.316399,60.907730 45.072506,58.394848 45.029613,56.390926 
	C44.944450,52.411884 45.003937,48.429859 44.991314,44.449104 
	C44.985226,42.529369 45.017601,40.547127 41.712273,41.473885 
z"/>
<path fill="#FFAF0F" opacity="1.000000" stroke="none" 
	d="
M71.296608,42.786541 
	C69.131416,43.090923 67.968651,42.424946 68.345581,40.418682 
	C68.563232,39.260223 69.720543,38.847115 70.695915,39.202991 
	C72.468315,39.849678 72.780136,41.127560 71.296608,42.786541 
z"/>
<path fill="#FFAF0F" opacity="1.000000" stroke="none" 
	d="
M21.754314,41.916168 
	C21.925943,39.919571 22.454018,38.591251 24.540382,39.458321 
	C25.611246,39.903351 26.089962,40.820923 25.505783,41.847233 
	C24.532379,43.557354 23.189287,43.354824 21.754314,41.916168 
z"/>
<path fill="#FFAE0B" opacity="1.000000" stroke="none" 
	d="
M30.835045,61.893616 
	C32.198498,64.008331 30.908766,65.050819 29.469370,65.332245 
	C28.379662,65.545288 27.169382,64.353645 27.378332,63.149876 
	C27.667843,61.482010 28.834232,60.644238 30.835045,61.893616 
z"/>
<path fill="#FFAF0E" opacity="1.000000" stroke="none" 
	d="
M52.275314,72.173828 
	C50.586952,72.896133 49.347919,72.964874 49.141460,71.038681 
	C49.022053,69.924637 49.522556,69.026772 50.712852,69.024879 
	C52.729233,69.021667 53.234108,70.155472 52.275314,72.173828 
z"/>
<path fill="#FFAF0E" opacity="1.000000" stroke="none" 
	d="
M41.720329,69.524223 
	C43.731487,68.646805 44.894173,69.003357 44.870438,71.107361 
	C44.860035,72.029716 44.302570,72.709923 43.375519,72.677788 
	C41.494263,72.612595 40.695683,71.682480 41.720329,69.524223 
z"/>
<path fill="#FFAF0E" opacity="1.000000" stroke="none" 
	d="
M56.527271,67.348938 
	C58.014500,65.826447 59.261391,65.636681 60.285854,67.393410 
	C60.952866,68.537201 60.343266,69.297180 59.346210,69.703850 
	C57.403408,70.496269 56.669399,69.355507 56.527271,67.348938 
z"/>
<path fill="#FFAE0B" opacity="1.000000" stroke="none" 
	d="
M62.680946,63.754147 
	C62.871159,61.801266 63.627003,60.650414 65.514015,61.553028 
	C66.417221,61.985062 67.138763,62.829250 66.413254,63.909451 
	C65.347755,65.495842 64.095818,65.479767 62.680946,63.754147 
z"/>
<path fill="#FFAD08" opacity="1.000000" stroke="none" 
	d="
M23.023998,47.160896 
	C25.432793,47.862980 25.372932,49.164749 24.170191,50.504345 
	C23.621424,51.115555 22.458359,51.148308 21.919838,50.523445 
	C20.804016,49.228714 20.534626,47.870468 23.023998,47.160896 
z"/>
<path fill="#FFAD06" opacity="1.000000" stroke="none" 
	d="
M69.605072,50.313210 
	C68.791786,48.297203 69.088501,47.078331 71.254105,47.139156 
	C72.198059,47.165665 72.813179,47.715214 72.811020,48.671585 
	C72.806328,50.752251 71.662613,51.198208 69.605072,50.313210 
z"/>
<path fill="#FFAC04" opacity="1.000000" stroke="none" 
	d="
M48.692131,23.709988 
	C47.204945,25.186026 45.912018,25.522951 45.188946,23.451878 
	C44.916786,22.672337 45.074097,21.655464 45.971878,21.364056 
	C47.648983,20.819683 48.960068,21.114017 48.692131,23.709988 
z"/>
<path fill="#FFAF0E" opacity="1.000000" stroke="none" 
	d="
M37.067249,69.256615 
	C35.258190,70.392418 33.944324,70.084351 33.610172,68.235756 
	C33.446987,67.332977 34.220360,66.225479 35.318619,66.228683 
	C37.038300,66.233704 38.168915,66.964645 37.067249,69.256615 
z"/>
<path fill="#FFAF0E" opacity="1.000000" stroke="none" 
	d="
M39.882812,22.401661 
	C41.212616,23.892071 41.529602,25.180979 39.575802,25.950048 
	C38.735600,26.280777 37.897835,25.921083 37.536480,25.138784 
	C36.618160,23.150700 37.930847,22.587065 39.882812,22.401661 
z"/>
<path fill="#FFAE0C" opacity="1.000000" stroke="none" 
	d="
M28.718477,33.949692 
	C28.005127,35.778030 27.006197,36.397137 25.601120,35.219452 
	C24.647148,34.419872 24.831779,33.375553 25.646368,32.638977 
	C27.094301,31.329718 27.998762,32.307568 28.718477,33.949692 
z"/>
<path fill="#FFAE0C" opacity="1.000000" stroke="none" 
	d="
M69.004967,54.950619 
	C71.218369,55.510418 71.219643,56.674263 70.279930,57.983078 
	C69.505043,59.062332 68.460625,58.738377 67.747688,57.953907 
	C66.504280,56.585732 67.117378,55.582920 69.004967,54.950619 
z"/>
<path fill="#FFAE0C" opacity="1.000000" stroke="none" 
	d="
M25.704147,55.084160 
	C27.274694,56.425316 27.217676,57.531879 25.686016,58.392281 
	C24.555231,59.027489 23.742456,58.450512 23.364616,57.399590 
	C22.710817,55.581123 23.777824,55.021965 25.704147,55.084160 
z"/>
<path fill="#FFAE0B" opacity="1.000000" stroke="none" 
	d="
M53.458309,22.742395 
	C55.146420,22.150755 56.471935,22.326931 56.589787,24.099567 
	C56.659424,25.147011 55.885612,26.014454 54.694897,25.923794 
	C52.728146,25.774052 52.833019,24.441772 53.458309,22.742395 
z"/>
<path fill="#FFB012" opacity="1.000000" stroke="none" 
	d="
M31.506870,26.366844 
	C33.805981,26.236591 34.399399,27.308075 33.752350,29.019379 
	C33.455441,29.804630 32.545570,30.205484 31.744778,29.823687 
	C30.111921,29.045172 29.605856,27.928150 31.506870,26.366844 
z"/>
<path fill="#FFB013" opacity="1.000000" stroke="none" 
	d="
M66.998993,35.691883 
	C65.322601,34.958572 64.447540,34.007362 65.740715,32.582596 
	C66.496689,31.749701 67.532303,31.602381 68.325760,32.565407 
	C69.516975,34.011200 68.804329,34.980019 66.998993,35.691883 
z"/>
<path fill="#FFB012" opacity="1.000000" stroke="none" 
	d="
M60.452820,29.297417 
	C59.608963,27.493479 59.954876,26.314711 61.714447,26.181479 
	C62.763882,26.102020 63.767929,26.872753 63.604729,28.012720 
	C63.379051,29.589088 62.333050,30.269726 60.452820,29.297417 
z"/>
</svg>